<svg xmlns="http://www.w3.org/2000/svg" viewBox="0 0 1000 1000"><path d="M875 0H125C55.96 0 0 55.96 0 125v750c0 69.04 55.96 125 125 125h750c69.04 0 125-55.96 125-125V125c0-69.04-55.96-125-125-125ZM305 349c0 38.11-30.89 69-69 69s-69-30.89-69-69v-60c0-38.11 30.89-69 69-69s69 30.89 69 69v60Zm176 362c0 38.11-30.89 69-69 69s-69-30.89-69-69V289c0-38.11 30.89-69 69-69s69 30.89 69 69v422Zm176 0c0 38.11-30.89 69-69 69s-69-30.89-69-69V289c0-38.11 30.89-69 69-69s69 30.89 69 69v422Zm176 0c0 38.11-30.89 69-69 69s-69-30.89-69-69V525c0-38.11 30.89-69 69-69s69 30.89 69 69v186Z" style="fill:#3c3a3b"/></svg>